<svg xmlns="http://www.w3.org/2000/svg" xmlns:xlink="http://www.w3.org/1999/xlink" width="500" zoomAndPan="magnify" viewBox="0 0 375 149.999998" height="200" preserveAspectRatio="xMidYMid meet" version="1.0"><defs><g/></defs><g fill="#fffbfa" fill-opacity="1"><g transform="translate(41.063833, 86.501911)"><g><path d="M 15.316406 0 C 15.722656 0 15.929688 -0.210938 15.929688 -0.613281 L 15.929688 -4.59375 C 15.929688 -4.996094 15.722656 -5.207031 15.316406 -5.207031 L 8.390625 -5.207031 L 8.390625 -22.363281 C 8.390625 -22.765625 8.183594 -22.976562 7.777344 -22.976562 L 2.886719 -22.976562 C 2.484375 -22.976562 2.273438 -22.765625 2.273438 -22.363281 L 2.273438 -0.613281 C 2.273438 -0.210938 2.484375 0 2.886719 0 Z M 15.316406 0 "/></g></g></g><g fill="#fffbfa" fill-opacity="1"><g transform="translate(82.15208, 86.501911)"><g><path d="M 12.429688 0.613281 C 18.070312 0.613281 22.828125 -1.808594 22.828125 -7.75 L 22.828125 -22.363281 C 22.828125 -22.765625 22.601562 -22.976562 22.214844 -22.976562 L 17.15625 -22.976562 C 16.753906 -22.976562 16.542969 -22.765625 16.542969 -22.363281 L 16.542969 -9.378906 C 16.542969 -6.222656 15.136719 -4.90625 12.429688 -4.90625 C 9.769531 -4.90625 8.332031 -6.222656 8.332031 -9.378906 L 8.332031 -22.363281 C 8.332031 -22.765625 8.121094 -22.976562 7.71875 -22.976562 L 2.664062 -22.976562 C 2.273438 -22.976562 2.050781 -22.765625 2.050781 -22.363281 L 2.050781 -7.75 C 2.050781 -1.808594 6.957031 0.613281 12.429688 0.613281 Z M 12.429688 0.613281 "/></g></g></g><g fill="#fffbfa" fill-opacity="1"><g transform="translate(131.540672, 86.501911)"><g><path d="M 7.253906 0 C 7.597656 0 7.808594 -0.121094 7.957031 -0.464844 L 11.1875 -7.164062 L 14.375 -0.464844 C 14.523438 -0.121094 14.734375 0 15.078125 0 L 21.078125 0 C 21.570312 0 21.71875 -0.300781 21.480469 -0.734375 L 14.855469 -11.519531 L 21.449219 -22.242188 C 21.691406 -22.675781 21.539062 -22.976562 21.046875 -22.976562 L 15.078125 -22.976562 C 14.734375 -22.976562 14.523438 -22.855469 14.375 -22.511719 L 11.1875 -15.78125 L 7.957031 -22.511719 C 7.808594 -22.855469 7.597656 -22.976562 7.253906 -22.976562 L 1.316406 -22.976562 C 0.824219 -22.976562 0.671875 -22.675781 0.914062 -22.242188 L 7.507812 -11.519531 L 0.851562 -0.734375 C 0.613281 -0.300781 0.761719 0 1.257812 0 Z M 7.253906 0 "/></g></g></g><g fill="#fffbfa" fill-opacity="1"><g transform="translate(178.416721, 86.501911)"><g><path d="M 12.429688 0.613281 C 18.070312 0.613281 22.828125 -1.808594 22.828125 -7.75 L 22.828125 -22.363281 C 22.828125 -22.765625 22.601562 -22.976562 22.214844 -22.976562 L 17.15625 -22.976562 C 16.753906 -22.976562 16.542969 -22.765625 16.542969 -22.363281 L 16.542969 -9.378906 C 16.542969 -6.222656 15.136719 -4.90625 12.429688 -4.90625 C 9.769531 -4.90625 8.332031 -6.222656 8.332031 -9.378906 L 8.332031 -22.363281 C 8.332031 -22.765625 8.121094 -22.976562 7.71875 -22.976562 L 2.664062 -22.976562 C 2.273438 -22.976562 2.050781 -22.765625 2.050781 -22.363281 L 2.050781 -7.75 C 2.050781 -1.808594 6.957031 0.613281 12.429688 0.613281 Z M 12.429688 0.613281 "/></g></g></g><g fill="#fffbfa" fill-opacity="1"><g transform="translate(227.805319, 86.501911)"><g><path d="M 17.128906 -8.632812 C 19.386719 -9.8125 20.671875 -12.265625 20.671875 -15.585938 C 20.671875 -19.519531 18.90625 -22.976562 12.429688 -22.976562 L 2.886719 -22.976562 C 2.484375 -22.976562 2.273438 -22.765625 2.273438 -22.363281 L 2.273438 -0.613281 C 2.273438 -0.210938 2.484375 0 2.886719 0 L 7.808594 0 C 8.210938 0 8.421875 -0.210938 8.421875 -0.613281 L 8.421875 -7.839844 L 11.007812 -7.839844 L 14.703125 -0.464844 C 14.855469 -0.148438 15.078125 0 15.40625 0 L 20.988281 0 C 21.449219 0 21.628906 -0.300781 21.421875 -0.734375 Z M 11.367188 -17.769531 C 12.59375 -17.769531 14.554688 -17.769531 14.554688 -15.527344 C 14.554688 -13.042969 12.222656 -13.042969 11.367188 -13.042969 L 8.421875 -13.042969 L 8.421875 -17.769531 Z M 11.367188 -17.769531 "/></g></g></g><g fill="#fffbfa" fill-opacity="1"><g transform="translate(275.05527, 86.501911)"><g><path d="M 7.777344 0 C 8.183594 0 8.390625 -0.210938 8.390625 -0.613281 L 8.390625 -22.363281 C 8.390625 -22.765625 8.183594 -22.976562 7.777344 -22.976562 L 2.886719 -22.976562 C 2.484375 -22.976562 2.273438 -22.765625 2.273438 -22.363281 L 2.273438 -0.613281 C 2.273438 -0.210938 2.484375 0 2.886719 0 Z M 7.777344 0 "/></g></g></g><g fill="#fffbfa" fill-opacity="1"><g transform="translate(310.236071, 86.501911)"><g><path d="M 12.65625 -22.976562 C 12.191406 -23.917969 11.457031 -23.917969 10.996094 -22.976562 L 0.464844 -0.734375 C 0.269531 -0.300781 0.464844 0 0.914062 0 L 6.3125 0 C 6.640625 0 6.894531 -0.179688 7.015625 -0.492188 L 7.761719 -2.421875 L 15.886719 -2.421875 L 16.632812 -0.492188 C 16.753906 -0.179688 17.007812 0 17.335938 0 L 22.738281 0 C 23.1875 0 23.378906 -0.300781 23.1875 -0.734375 Z M 11.832031 -12.789062 L 14.089844 -7.015625 L 9.558594 -7.015625 Z M 11.832031 -12.789062 "/></g></g></g></svg>